<mxfile modified="2022-05-20T02:23:05.177Z" host="app.diagrams.net" agent="5.0 (Windows NT 10.0; Win64; x64) AppleWebKit/537.36 (KHTML, like Gecko) Chrome/101.0.4951.54 Safari/537.36" etag="XbvGNdvkZ8m1fxyz81EA" compressed="false" version="18.0.8" type="google">
  <diagram name="Integration/System Logical Module/API/Resource URLs/Obligations" id="_vl6j4uGzw7o1ja7lDuy">
    <mxGraphModel grid="1" page="1" gridSize="10" guides="1" tooltips="1" connect="1" arrows="1" fold="1" pageScale="1" pageWidth="850" pageHeight="1100" math="0" shadow="0">
      <root>
        <mxCell id="plRAJhjOQbolsk8mRA2n-0" />
        <mxCell id="plRAJhjOQbolsk8mRA2n-1" parent="plRAJhjOQbolsk8mRA2n-0" />
        <mxCell id="plRAJhjOQbolsk8mRA2n-26" value="List Obligations (within current Tenancy)" style="text;html=1;strokeColor=none;fillColor=none;align=left;verticalAlign=middle;whiteSpace=wrap;rounded=0;dashed=1;fontFamily=Helvetica;fontSize=12;" vertex="1" parent="plRAJhjOQbolsk8mRA2n-1">
          <mxGeometry x="400" y="300" width="320" height="20" as="geometry" />
        </mxCell>
        <mxCell id="plRAJhjOQbolsk8mRA2n-27" value="Obligations" style="text;html=1;strokeColor=none;fillColor=none;align=left;verticalAlign=middle;whiteSpace=wrap;rounded=0;dashed=1;fontSize=12;fontFamily=Courier New;" vertex="1" parent="plRAJhjOQbolsk8mRA2n-1">
          <mxGeometry x="160" y="300" width="200" height="20" as="geometry" />
        </mxCell>
        <mxCell id="plRAJhjOQbolsk8mRA2n-28" value="Obligations/{uuid}" style="text;html=1;strokeColor=none;fillColor=none;align=left;verticalAlign=middle;whiteSpace=wrap;rounded=0;dashed=1;fontSize=12;fontFamily=Courier New;" vertex="1" parent="plRAJhjOQbolsk8mRA2n-1">
          <mxGeometry x="160" y="420" width="200" height="20" as="geometry" />
        </mxCell>
        <mxCell id="plRAJhjOQbolsk8mRA2n-29" value="View Obligation {uuid}. Using common non-standard notation." style="text;html=1;strokeColor=none;fillColor=none;align=left;verticalAlign=middle;whiteSpace=wrap;rounded=0;dashed=1;fontFamily=Helvetica;fontSize=12;" vertex="1" parent="plRAJhjOQbolsk8mRA2n-1">
          <mxGeometry x="400" y="420" width="320" height="20" as="geometry" />
        </mxCell>
        <mxCell id="plRAJhjOQbolsk8mRA2n-30" value="GET" style="text;html=1;strokeColor=none;fillColor=none;align=left;verticalAlign=middle;whiteSpace=wrap;rounded=0;dashed=1;fontSize=12;fontFamily=Courier New;" vertex="1" parent="plRAJhjOQbolsk8mRA2n-1">
          <mxGeometry x="120" y="300" width="40" height="20" as="geometry" />
        </mxCell>
        <mxCell id="plRAJhjOQbolsk8mRA2n-31" value="GET" style="text;html=1;strokeColor=none;fillColor=none;align=left;verticalAlign=middle;whiteSpace=wrap;rounded=0;dashed=1;fontSize=12;fontFamily=Courier New;" vertex="1" parent="plRAJhjOQbolsk8mRA2n-1">
          <mxGeometry x="120" y="420" width="40" height="20" as="geometry" />
        </mxCell>
        <mxCell id="plRAJhjOQbolsk8mRA2n-32" value="POST" style="text;html=1;strokeColor=none;fillColor=none;align=left;verticalAlign=middle;whiteSpace=wrap;rounded=0;dashed=1;fontSize=12;fontFamily=Courier New;" vertex="1" parent="plRAJhjOQbolsk8mRA2n-1">
          <mxGeometry x="120" y="460" width="40" height="20" as="geometry" />
        </mxCell>
        <mxCell id="plRAJhjOQbolsk8mRA2n-33" value="Obligations" style="text;html=1;strokeColor=none;fillColor=none;align=left;verticalAlign=middle;whiteSpace=wrap;rounded=0;dashed=1;fontSize=12;fontFamily=Courier New;" vertex="1" parent="plRAJhjOQbolsk8mRA2n-1">
          <mxGeometry x="160" y="460" width="200" height="20" as="geometry" />
        </mxCell>
        <mxCell id="plRAJhjOQbolsk8mRA2n-34" value="POST" style="text;html=1;strokeColor=none;fillColor=none;align=left;verticalAlign=middle;whiteSpace=wrap;rounded=0;dashed=1;fontSize=12;fontFamily=Courier New;" vertex="1" parent="plRAJhjOQbolsk8mRA2n-1">
          <mxGeometry x="120" y="480" width="40" height="20" as="geometry" />
        </mxCell>
        <mxCell id="plRAJhjOQbolsk8mRA2n-35" value="Obligations(&#39;{uuid}&#39;)" style="text;html=1;strokeColor=none;fillColor=none;align=left;verticalAlign=middle;whiteSpace=wrap;rounded=0;dashed=1;fontSize=12;fontFamily=Courier New;" vertex="1" parent="plRAJhjOQbolsk8mRA2n-1">
          <mxGeometry x="160" y="480" width="200" height="20" as="geometry" />
        </mxCell>
        <mxCell id="plRAJhjOQbolsk8mRA2n-36" value="Create&amp;nbsp;&lt;span style=&quot;font-size: 10px;&quot;&gt;Obligation&lt;/span&gt;, server side generated Id. &lt;b style=&quot;font-size: 10px;&quot;&gt;&lt;font color=&quot;#cc0000&quot; style=&quot;font-size: 10px;&quot;&gt;&lt;u style=&quot;font-size: 10px;&quot;&gt;NOT&lt;/u&gt;&lt;/font&gt; &lt;/b&gt;recommended." style="text;html=1;strokeColor=none;fillColor=none;align=left;verticalAlign=middle;whiteSpace=wrap;rounded=0;dashed=1;fontFamily=Helvetica;fontSize=10;" vertex="1" parent="plRAJhjOQbolsk8mRA2n-1">
          <mxGeometry x="400" y="460" width="320" height="20" as="geometry" />
        </mxCell>
        <mxCell id="plRAJhjOQbolsk8mRA2n-37" value="Create&amp;nbsp;&lt;span style=&quot;font-size: 12px&quot;&gt;Obligation&lt;/span&gt;, client side generated UUID. &lt;font color=&quot;#009900&quot; size=&quot;1&quot;&gt;&lt;b&gt;RECOMMENDED&lt;/b&gt;&lt;/font&gt;." style="text;html=1;strokeColor=none;fillColor=none;align=left;verticalAlign=middle;whiteSpace=wrap;rounded=0;dashed=1;fontFamily=Helvetica;fontSize=11;" vertex="1" parent="plRAJhjOQbolsk8mRA2n-1">
          <mxGeometry x="400" y="480" width="320" height="20" as="geometry" />
        </mxCell>
        <mxCell id="plRAJhjOQbolsk8mRA2n-38" value="PUT" style="text;html=1;strokeColor=none;fillColor=none;align=left;verticalAlign=middle;whiteSpace=wrap;rounded=0;dashed=1;fontSize=12;fontFamily=Courier New;" vertex="1" parent="plRAJhjOQbolsk8mRA2n-1">
          <mxGeometry x="120" y="440" width="40" height="20" as="geometry" />
        </mxCell>
        <mxCell id="plRAJhjOQbolsk8mRA2n-39" value="Obligations(&#39;{uuid}&#39;)" style="text;html=1;strokeColor=none;fillColor=none;align=left;verticalAlign=middle;whiteSpace=wrap;rounded=0;dashed=1;fontSize=12;fontFamily=Courier New;" vertex="1" parent="plRAJhjOQbolsk8mRA2n-1">
          <mxGeometry x="160" y="440" width="200" height="20" as="geometry" />
        </mxCell>
        <mxCell id="plRAJhjOQbolsk8mRA2n-40" value="Edit Obligation {uuid}. Using ODATA Standard notation." style="text;html=1;strokeColor=none;fillColor=none;align=left;verticalAlign=middle;whiteSpace=wrap;rounded=0;dashed=1;fontFamily=Helvetica;fontSize=12;" vertex="1" parent="plRAJhjOQbolsk8mRA2n-1">
          <mxGeometry x="400" y="440" width="320" height="20" as="geometry" />
        </mxCell>
        <mxCell id="plRAJhjOQbolsk8mRA2n-41" value="DELETE" style="text;html=1;strokeColor=none;fillColor=none;align=left;verticalAlign=middle;whiteSpace=wrap;rounded=0;dashed=1;fontSize=10;fontFamily=Courier New;" vertex="1" parent="plRAJhjOQbolsk8mRA2n-1">
          <mxGeometry x="120" y="500" width="40" height="20" as="geometry" />
        </mxCell>
        <mxCell id="plRAJhjOQbolsk8mRA2n-42" value="Obligations(&#39;{uuid}&#39;)" style="text;html=1;strokeColor=none;fillColor=none;align=left;verticalAlign=middle;whiteSpace=wrap;rounded=0;dashed=1;fontSize=12;fontFamily=Courier New;" vertex="1" parent="plRAJhjOQbolsk8mRA2n-1">
          <mxGeometry x="160" y="500" width="200" height="20" as="geometry" />
        </mxCell>
        <mxCell id="plRAJhjOQbolsk8mRA2n-43" value="Delete Obligation {uuid}" style="text;html=1;strokeColor=none;fillColor=none;align=left;verticalAlign=middle;whiteSpace=wrap;rounded=0;dashed=1;fontFamily=Helvetica;fontSize=12;" vertex="1" parent="plRAJhjOQbolsk8mRA2n-1">
          <mxGeometry x="400" y="500" width="320" height="20" as="geometry" />
        </mxCell>
        <mxCell id="plRAJhjOQbolsk8mRA2n-45" value="List Obligations, page 3, using ODATA standard filter arguments." style="text;html=1;strokeColor=none;fillColor=none;align=left;verticalAlign=middle;whiteSpace=wrap;rounded=0;dashed=1;fontFamily=Helvetica;fontSize=11;" vertex="1" parent="plRAJhjOQbolsk8mRA2n-1">
          <mxGeometry x="400" y="340" width="320" height="20" as="geometry" />
        </mxCell>
        <mxCell id="plRAJhjOQbolsk8mRA2n-46" value="&lt;font style=&quot;font-size: 12px&quot;&gt;Obligations?$top=80&amp;amp;$skip=60&lt;/font&gt;" style="text;html=1;strokeColor=none;fillColor=none;align=left;verticalAlign=middle;whiteSpace=wrap;rounded=0;dashed=1;fontSize=12;fontFamily=Courier New;" vertex="1" parent="plRAJhjOQbolsk8mRA2n-1">
          <mxGeometry x="160" y="340" width="240" height="20" as="geometry" />
        </mxCell>
        <mxCell id="plRAJhjOQbolsk8mRA2n-47" value="GET" style="text;html=1;strokeColor=none;fillColor=none;align=left;verticalAlign=middle;whiteSpace=wrap;rounded=0;dashed=1;fontSize=12;fontFamily=Courier New;" vertex="1" parent="plRAJhjOQbolsk8mRA2n-1">
          <mxGeometry x="120" y="340" width="40" height="20" as="geometry" />
        </mxCell>
        <mxCell id="plRAJhjOQbolsk8mRA2n-48" value="Count Obligations, using ODATA standard filter arguments." style="text;html=1;strokeColor=none;fillColor=none;align=left;verticalAlign=middle;whiteSpace=wrap;rounded=0;dashed=1;fontFamily=Helvetica;fontSize=12;" vertex="1" parent="plRAJhjOQbolsk8mRA2n-1">
          <mxGeometry x="400" y="320" width="320" height="20" as="geometry" />
        </mxCell>
        <mxCell id="plRAJhjOQbolsk8mRA2n-49" value="Obligations?$count=true" style="text;html=1;strokeColor=none;fillColor=none;align=left;verticalAlign=middle;whiteSpace=wrap;rounded=0;dashed=1;fontSize=12;fontFamily=Courier New;" vertex="1" parent="plRAJhjOQbolsk8mRA2n-1">
          <mxGeometry x="160" y="320" width="200" height="20" as="geometry" />
        </mxCell>
        <mxCell id="plRAJhjOQbolsk8mRA2n-50" value="GET" style="text;html=1;strokeColor=none;fillColor=none;align=left;verticalAlign=middle;whiteSpace=wrap;rounded=0;dashed=1;fontSize=12;fontFamily=Courier New;" vertex="1" parent="plRAJhjOQbolsk8mRA2n-1">
          <mxGeometry x="120" y="320" width="40" height="20" as="geometry" />
        </mxCell>
        <mxCell id="plRAJhjOQbolsk8mRA2n-51" value="List Permissions (within current Tenancy)" style="text;html=1;strokeColor=none;fillColor=none;align=left;verticalAlign=middle;whiteSpace=wrap;rounded=0;dashed=1;fontFamily=Helvetica;fontSize=12;" vertex="1" parent="plRAJhjOQbolsk8mRA2n-1">
          <mxGeometry x="360" y="920" width="320" height="20" as="geometry" />
        </mxCell>
        <mxCell id="plRAJhjOQbolsk8mRA2n-52" value="Permissions" style="text;html=1;strokeColor=none;fillColor=none;align=left;verticalAlign=middle;whiteSpace=wrap;rounded=0;dashed=1;fontSize=12;fontFamily=Courier New;" vertex="1" parent="plRAJhjOQbolsk8mRA2n-1">
          <mxGeometry x="120" y="920" width="200" height="20" as="geometry" />
        </mxCell>
        <mxCell id="plRAJhjOQbolsk8mRA2n-53" value="Permissions/{uuid}" style="text;html=1;strokeColor=none;fillColor=none;align=left;verticalAlign=middle;whiteSpace=wrap;rounded=0;dashed=1;fontSize=12;fontFamily=Courier New;" vertex="1" parent="plRAJhjOQbolsk8mRA2n-1">
          <mxGeometry x="120" y="1020" width="200" height="20" as="geometry" />
        </mxCell>
        <mxCell id="plRAJhjOQbolsk8mRA2n-54" value="View Permission {uuid}. Using common Non-Standard notation." style="text;html=1;strokeColor=none;fillColor=none;align=left;verticalAlign=middle;whiteSpace=wrap;rounded=0;dashed=1;fontFamily=Helvetica;fontSize=12;" vertex="1" parent="plRAJhjOQbolsk8mRA2n-1">
          <mxGeometry x="360" y="1020" width="320" height="20" as="geometry" />
        </mxCell>
        <mxCell id="plRAJhjOQbolsk8mRA2n-55" value="GET" style="text;html=1;strokeColor=none;fillColor=none;align=left;verticalAlign=middle;whiteSpace=wrap;rounded=0;dashed=1;fontSize=12;fontFamily=Courier New;" vertex="1" parent="plRAJhjOQbolsk8mRA2n-1">
          <mxGeometry x="80" y="920" width="40" height="20" as="geometry" />
        </mxCell>
        <mxCell id="plRAJhjOQbolsk8mRA2n-56" value="GET" style="text;html=1;strokeColor=none;fillColor=none;align=left;verticalAlign=middle;whiteSpace=wrap;rounded=0;dashed=1;fontSize=12;fontFamily=Courier New;" vertex="1" parent="plRAJhjOQbolsk8mRA2n-1">
          <mxGeometry x="80" y="1020" width="40" height="20" as="geometry" />
        </mxCell>
        <mxCell id="plRAJhjOQbolsk8mRA2n-57" value="POST" style="text;html=1;strokeColor=none;fillColor=none;align=left;verticalAlign=middle;whiteSpace=wrap;rounded=0;dashed=1;fontSize=12;fontFamily=Courier New;" vertex="1" parent="plRAJhjOQbolsk8mRA2n-1">
          <mxGeometry x="80" y="1060" width="40" height="20" as="geometry" />
        </mxCell>
        <mxCell id="plRAJhjOQbolsk8mRA2n-58" value="Permissions" style="text;html=1;strokeColor=none;fillColor=none;align=left;verticalAlign=middle;whiteSpace=wrap;rounded=0;dashed=1;fontSize=12;fontFamily=Courier New;" vertex="1" parent="plRAJhjOQbolsk8mRA2n-1">
          <mxGeometry x="120" y="1060" width="200" height="20" as="geometry" />
        </mxCell>
        <mxCell id="plRAJhjOQbolsk8mRA2n-59" value="POST" style="text;html=1;strokeColor=none;fillColor=none;align=left;verticalAlign=middle;whiteSpace=wrap;rounded=0;dashed=1;fontSize=12;fontFamily=Courier New;" vertex="1" parent="plRAJhjOQbolsk8mRA2n-1">
          <mxGeometry x="80" y="1080" width="40" height="20" as="geometry" />
        </mxCell>
        <mxCell id="plRAJhjOQbolsk8mRA2n-60" value="Permissions(&#39;{uuid}&#39;)" style="text;html=1;strokeColor=none;fillColor=none;align=left;verticalAlign=middle;whiteSpace=wrap;rounded=0;dashed=1;fontSize=12;fontFamily=Courier New;" vertex="1" parent="plRAJhjOQbolsk8mRA2n-1">
          <mxGeometry x="120" y="1080" width="200" height="20" as="geometry" />
        </mxCell>
        <mxCell id="plRAJhjOQbolsk8mRA2n-61" value="Create&amp;nbsp;&lt;span style=&quot;font-size: 12px&quot;&gt;Permission&lt;/span&gt;, server side generated Id. &lt;b style=&quot;font-size: 11px&quot;&gt;&lt;font color=&quot;#cc0000&quot; style=&quot;font-size: 11px&quot;&gt;&lt;u style=&quot;font-size: 11px&quot;&gt;NOT&lt;/u&gt;&lt;/font&gt; &lt;/b&gt;recommended." style="text;html=1;strokeColor=none;fillColor=none;align=left;verticalAlign=middle;whiteSpace=wrap;rounded=0;dashed=1;fontFamily=Helvetica;fontSize=11;" vertex="1" parent="plRAJhjOQbolsk8mRA2n-1">
          <mxGeometry x="360" y="1060" width="320" height="20" as="geometry" />
        </mxCell>
        <mxCell id="plRAJhjOQbolsk8mRA2n-62" value="Create&amp;nbsp;&lt;span style=&quot;font-size: 12px&quot;&gt;Permission&lt;/span&gt;, client side generated UUID. &lt;font color=&quot;#009900&quot; size=&quot;1&quot;&gt;&lt;b&gt;RECOMMENDED&lt;/b&gt;&lt;/font&gt;." style="text;html=1;strokeColor=none;fillColor=none;align=left;verticalAlign=middle;whiteSpace=wrap;rounded=0;dashed=1;fontFamily=Helvetica;fontSize=11;" vertex="1" parent="plRAJhjOQbolsk8mRA2n-1">
          <mxGeometry x="360" y="1080" width="320" height="20" as="geometry" />
        </mxCell>
        <mxCell id="plRAJhjOQbolsk8mRA2n-63" value="PUT" style="text;html=1;strokeColor=none;fillColor=none;align=left;verticalAlign=middle;whiteSpace=wrap;rounded=0;dashed=1;fontSize=12;fontFamily=Courier New;" vertex="1" parent="plRAJhjOQbolsk8mRA2n-1">
          <mxGeometry x="80" y="1040" width="40" height="20" as="geometry" />
        </mxCell>
        <mxCell id="plRAJhjOQbolsk8mRA2n-64" value="Permissions(&#39;{uuid}&#39;)" style="text;html=1;strokeColor=none;fillColor=none;align=left;verticalAlign=middle;whiteSpace=wrap;rounded=0;dashed=1;fontSize=12;fontFamily=Courier New;" vertex="1" parent="plRAJhjOQbolsk8mRA2n-1">
          <mxGeometry x="120" y="1040" width="200" height="20" as="geometry" />
        </mxCell>
        <mxCell id="plRAJhjOQbolsk8mRA2n-65" value="Edit Permission {uuid}. Using ODATA Standard notation." style="text;html=1;strokeColor=none;fillColor=none;align=left;verticalAlign=middle;whiteSpace=wrap;rounded=0;dashed=1;fontFamily=Helvetica;fontSize=12;" vertex="1" parent="plRAJhjOQbolsk8mRA2n-1">
          <mxGeometry x="360" y="1040" width="320" height="20" as="geometry" />
        </mxCell>
        <mxCell id="plRAJhjOQbolsk8mRA2n-66" value="DELETE" style="text;html=1;strokeColor=none;fillColor=none;align=left;verticalAlign=middle;whiteSpace=wrap;rounded=0;dashed=1;fontSize=10;fontFamily=Courier New;" vertex="1" parent="plRAJhjOQbolsk8mRA2n-1">
          <mxGeometry x="80" y="1090" width="40" height="20" as="geometry" />
        </mxCell>
        <mxCell id="plRAJhjOQbolsk8mRA2n-67" value="Permissions(&#39;{uuid}&#39;)" style="text;html=1;strokeColor=none;fillColor=none;align=left;verticalAlign=middle;whiteSpace=wrap;rounded=0;dashed=1;fontSize=12;fontFamily=Courier New;" vertex="1" parent="plRAJhjOQbolsk8mRA2n-1">
          <mxGeometry x="120" y="1090" width="200" height="20" as="geometry" />
        </mxCell>
        <mxCell id="plRAJhjOQbolsk8mRA2n-68" value="Delete Permission {uuid}" style="text;html=1;strokeColor=none;fillColor=none;align=left;verticalAlign=middle;whiteSpace=wrap;rounded=0;dashed=1;fontFamily=Helvetica;fontSize=12;" vertex="1" parent="plRAJhjOQbolsk8mRA2n-1">
          <mxGeometry x="360" y="1090" width="320" height="20" as="geometry" />
        </mxCell>
        <mxCell id="plRAJhjOQbolsk8mRA2n-69" value="Permissions" style="text;strokeColor=none;fillColor=none;html=1;fontSize=12;fontStyle=5;verticalAlign=middle;align=left;dashed=1;fontFamily=Helvetica;" vertex="1" parent="plRAJhjOQbolsk8mRA2n-1">
          <mxGeometry x="80" y="840" width="280" height="20" as="geometry" />
        </mxCell>
        <mxCell id="plRAJhjOQbolsk8mRA2n-70" value="List Permissions, page 3, using ODATA standard filter arguments." style="text;html=1;strokeColor=none;fillColor=none;align=left;verticalAlign=middle;whiteSpace=wrap;rounded=0;dashed=1;fontFamily=Helvetica;fontSize=12;" vertex="1" parent="plRAJhjOQbolsk8mRA2n-1">
          <mxGeometry x="360" y="960" width="320" height="20" as="geometry" />
        </mxCell>
        <mxCell id="plRAJhjOQbolsk8mRA2n-71" value="&lt;font style=&quot;font-size: 11px&quot;&gt;&lt;span style=&quot;font-size: 12px&quot;&gt;Permissions&lt;/span&gt;?$top=80&amp;amp;$skip=60&lt;/font&gt;" style="text;html=1;strokeColor=none;fillColor=none;align=left;verticalAlign=middle;whiteSpace=wrap;rounded=0;dashed=1;fontSize=12;fontFamily=Courier New;" vertex="1" parent="plRAJhjOQbolsk8mRA2n-1">
          <mxGeometry x="120" y="960" width="240" height="20" as="geometry" />
        </mxCell>
        <mxCell id="plRAJhjOQbolsk8mRA2n-72" value="GET" style="text;html=1;strokeColor=none;fillColor=none;align=left;verticalAlign=middle;whiteSpace=wrap;rounded=0;dashed=1;fontSize=12;fontFamily=Courier New;" vertex="1" parent="plRAJhjOQbolsk8mRA2n-1">
          <mxGeometry x="80" y="960" width="40" height="20" as="geometry" />
        </mxCell>
        <mxCell id="plRAJhjOQbolsk8mRA2n-73" value="Count Permissions, using ODATA standard filter arguments." style="text;html=1;strokeColor=none;fillColor=none;align=left;verticalAlign=middle;whiteSpace=wrap;rounded=0;dashed=1;fontFamily=Helvetica;fontSize=12;" vertex="1" parent="plRAJhjOQbolsk8mRA2n-1">
          <mxGeometry x="360" y="940" width="320" height="20" as="geometry" />
        </mxCell>
        <mxCell id="plRAJhjOQbolsk8mRA2n-74" value="Permissions?$count=true" style="text;html=1;strokeColor=none;fillColor=none;align=left;verticalAlign=middle;whiteSpace=wrap;rounded=0;dashed=1;fontSize=12;fontFamily=Courier New;" vertex="1" parent="plRAJhjOQbolsk8mRA2n-1">
          <mxGeometry x="120" y="940" width="200" height="20" as="geometry" />
        </mxCell>
        <mxCell id="plRAJhjOQbolsk8mRA2n-75" value="GET" style="text;html=1;strokeColor=none;fillColor=none;align=left;verticalAlign=middle;whiteSpace=wrap;rounded=0;dashed=1;fontSize=12;fontFamily=Courier New;" vertex="1" parent="plRAJhjOQbolsk8mRA2n-1">
          <mxGeometry x="80" y="940" width="40" height="20" as="geometry" />
        </mxCell>
        <mxCell id="plRAJhjOQbolsk8mRA2n-76" value="List DataCategories (within current Tenancy)" style="text;html=1;strokeColor=none;fillColor=none;align=left;verticalAlign=middle;whiteSpace=wrap;rounded=0;dashed=1;fontFamily=Helvetica;fontSize=12;" vertex="1" parent="plRAJhjOQbolsk8mRA2n-1">
          <mxGeometry x="360" y="1200" width="320" height="20" as="geometry" />
        </mxCell>
        <mxCell id="plRAJhjOQbolsk8mRA2n-77" value="DataCategories" style="text;html=1;strokeColor=none;fillColor=none;align=left;verticalAlign=middle;whiteSpace=wrap;rounded=0;dashed=1;fontSize=12;fontFamily=Courier New;" vertex="1" parent="plRAJhjOQbolsk8mRA2n-1">
          <mxGeometry x="120" y="1200" width="240" height="20" as="geometry" />
        </mxCell>
        <mxCell id="plRAJhjOQbolsk8mRA2n-78" value="DataCategories/{uuid}" style="text;html=1;strokeColor=none;fillColor=none;align=left;verticalAlign=middle;whiteSpace=wrap;rounded=0;dashed=1;fontSize=12;fontFamily=Courier New;" vertex="1" parent="plRAJhjOQbolsk8mRA2n-1">
          <mxGeometry x="120" y="1280" width="240" height="20" as="geometry" />
        </mxCell>
        <mxCell id="plRAJhjOQbolsk8mRA2n-79" value="View DataCategory {uuid}. Using common non-standard notation." style="text;html=1;strokeColor=none;fillColor=none;align=left;verticalAlign=middle;whiteSpace=wrap;rounded=0;dashed=1;fontFamily=Helvetica;fontSize=12;" vertex="1" parent="plRAJhjOQbolsk8mRA2n-1">
          <mxGeometry x="360" y="1280" width="320" height="20" as="geometry" />
        </mxCell>
        <mxCell id="plRAJhjOQbolsk8mRA2n-80" value="GET" style="text;html=1;strokeColor=none;fillColor=none;align=left;verticalAlign=middle;whiteSpace=wrap;rounded=0;dashed=1;fontSize=12;fontFamily=Courier New;" vertex="1" parent="plRAJhjOQbolsk8mRA2n-1">
          <mxGeometry x="80" y="1200" width="40" height="20" as="geometry" />
        </mxCell>
        <mxCell id="plRAJhjOQbolsk8mRA2n-81" value="GET" style="text;html=1;strokeColor=none;fillColor=none;align=left;verticalAlign=middle;whiteSpace=wrap;rounded=0;dashed=1;fontSize=12;fontFamily=Courier New;" vertex="1" parent="plRAJhjOQbolsk8mRA2n-1">
          <mxGeometry x="80" y="1280" width="40" height="20" as="geometry" />
        </mxCell>
        <mxCell id="plRAJhjOQbolsk8mRA2n-82" value="POST" style="text;html=1;strokeColor=none;fillColor=none;align=left;verticalAlign=middle;whiteSpace=wrap;rounded=0;dashed=1;fontSize=12;fontFamily=Courier New;" vertex="1" parent="plRAJhjOQbolsk8mRA2n-1">
          <mxGeometry x="80" y="1320" width="40" height="20" as="geometry" />
        </mxCell>
        <mxCell id="plRAJhjOQbolsk8mRA2n-83" value="DataCategories" style="text;html=1;strokeColor=none;fillColor=none;align=left;verticalAlign=middle;whiteSpace=wrap;rounded=0;dashed=1;fontSize=12;fontFamily=Courier New;" vertex="1" parent="plRAJhjOQbolsk8mRA2n-1">
          <mxGeometry x="120" y="1320" width="240" height="20" as="geometry" />
        </mxCell>
        <mxCell id="plRAJhjOQbolsk8mRA2n-84" value="POST" style="text;html=1;strokeColor=none;fillColor=none;align=left;verticalAlign=middle;whiteSpace=wrap;rounded=0;dashed=1;fontSize=12;fontFamily=Courier New;" vertex="1" parent="plRAJhjOQbolsk8mRA2n-1">
          <mxGeometry x="80" y="1340" width="40" height="20" as="geometry" />
        </mxCell>
        <mxCell id="plRAJhjOQbolsk8mRA2n-85" value="DataCategories(&#39;{uuid}&#39;)" style="text;html=1;strokeColor=none;fillColor=none;align=left;verticalAlign=middle;whiteSpace=wrap;rounded=0;dashed=1;fontSize=12;fontFamily=Courier New;" vertex="1" parent="plRAJhjOQbolsk8mRA2n-1">
          <mxGeometry x="120" y="1340" width="240" height="20" as="geometry" />
        </mxCell>
        <mxCell id="plRAJhjOQbolsk8mRA2n-86" value="Create&amp;nbsp;&lt;span style=&quot;font-size: 12px&quot;&gt;DataCategory&lt;/span&gt;, server side generated Id. &lt;b style=&quot;font-size: 11px&quot;&gt;&lt;font color=&quot;#cc0000&quot; style=&quot;font-size: 11px&quot;&gt;&lt;u style=&quot;font-size: 11px&quot;&gt;NOT&lt;/u&gt;&lt;/font&gt; &lt;/b&gt;recommended." style="text;html=1;strokeColor=none;fillColor=none;align=left;verticalAlign=middle;whiteSpace=wrap;rounded=0;dashed=1;fontFamily=Helvetica;fontSize=11;" vertex="1" parent="plRAJhjOQbolsk8mRA2n-1">
          <mxGeometry x="360" y="1320" width="320" height="20" as="geometry" />
        </mxCell>
        <mxCell id="plRAJhjOQbolsk8mRA2n-87" value="Create&amp;nbsp;&lt;span style=&quot;font-size: 12px&quot;&gt;DataCategory&lt;/span&gt;, client side generated UUID. &lt;font color=&quot;#009900&quot; size=&quot;1&quot;&gt;&lt;b&gt;RECOMMENDED&lt;/b&gt;&lt;/font&gt;." style="text;html=1;strokeColor=none;fillColor=none;align=left;verticalAlign=middle;whiteSpace=wrap;rounded=0;dashed=1;fontFamily=Helvetica;fontSize=11;" vertex="1" parent="plRAJhjOQbolsk8mRA2n-1">
          <mxGeometry x="360" y="1340" width="320" height="20" as="geometry" />
        </mxCell>
        <mxCell id="plRAJhjOQbolsk8mRA2n-88" value="PUT" style="text;html=1;strokeColor=none;fillColor=none;align=left;verticalAlign=middle;whiteSpace=wrap;rounded=0;dashed=1;fontSize=12;fontFamily=Courier New;" vertex="1" parent="plRAJhjOQbolsk8mRA2n-1">
          <mxGeometry x="80" y="1300" width="40" height="20" as="geometry" />
        </mxCell>
        <mxCell id="plRAJhjOQbolsk8mRA2n-89" value="DataCategories(&#39;{uuid}&#39;)" style="text;html=1;strokeColor=none;fillColor=none;align=left;verticalAlign=middle;whiteSpace=wrap;rounded=0;dashed=1;fontSize=12;fontFamily=Courier New;" vertex="1" parent="plRAJhjOQbolsk8mRA2n-1">
          <mxGeometry x="120" y="1300" width="240" height="20" as="geometry" />
        </mxCell>
        <mxCell id="plRAJhjOQbolsk8mRA2n-90" value="Edit DataCategory {uuid}. Using ODATA Standard notation." style="text;html=1;strokeColor=none;fillColor=none;align=left;verticalAlign=middle;whiteSpace=wrap;rounded=0;dashed=1;fontFamily=Helvetica;fontSize=12;" vertex="1" parent="plRAJhjOQbolsk8mRA2n-1">
          <mxGeometry x="360" y="1300" width="320" height="20" as="geometry" />
        </mxCell>
        <mxCell id="plRAJhjOQbolsk8mRA2n-91" value="DELETE" style="text;html=1;strokeColor=none;fillColor=none;align=left;verticalAlign=middle;whiteSpace=wrap;rounded=0;dashed=1;fontSize=10;fontFamily=Courier New;" vertex="1" parent="plRAJhjOQbolsk8mRA2n-1">
          <mxGeometry x="80" y="1360" width="40" height="20" as="geometry" />
        </mxCell>
        <mxCell id="plRAJhjOQbolsk8mRA2n-92" value="DataCategories(&#39;{uuid}&#39;)" style="text;html=1;strokeColor=none;fillColor=none;align=left;verticalAlign=middle;whiteSpace=wrap;rounded=0;dashed=1;fontSize=12;fontFamily=Courier New;" vertex="1" parent="plRAJhjOQbolsk8mRA2n-1">
          <mxGeometry x="120" y="1360" width="240" height="20" as="geometry" />
        </mxCell>
        <mxCell id="plRAJhjOQbolsk8mRA2n-93" value="Delete DataCategory {uuid}" style="text;html=1;strokeColor=none;fillColor=none;align=left;verticalAlign=middle;whiteSpace=wrap;rounded=0;dashed=1;fontFamily=Helvetica;fontSize=12;" vertex="1" parent="plRAJhjOQbolsk8mRA2n-1">
          <mxGeometry x="360" y="1360" width="320" height="20" as="geometry" />
        </mxCell>
        <mxCell id="plRAJhjOQbolsk8mRA2n-94" value="Data Category" style="text;strokeColor=none;fillColor=none;html=1;fontSize=12;fontStyle=5;verticalAlign=middle;align=left;dashed=1;fontFamily=Helvetica;" vertex="1" parent="plRAJhjOQbolsk8mRA2n-1">
          <mxGeometry x="80" y="1120" width="280" height="20" as="geometry" />
        </mxCell>
        <mxCell id="plRAJhjOQbolsk8mRA2n-95" value="&lt;font style=&quot;font-size: 11px&quot;&gt;List DataCategories, page 3, using ODATA standard filter arguments.&lt;/font&gt;" style="text;html=1;strokeColor=none;fillColor=none;align=left;verticalAlign=middle;whiteSpace=wrap;rounded=0;dashed=1;fontFamily=Helvetica;fontSize=12;" vertex="1" parent="plRAJhjOQbolsk8mRA2n-1">
          <mxGeometry x="360" y="1240" width="320" height="20" as="geometry" />
        </mxCell>
        <mxCell id="plRAJhjOQbolsk8mRA2n-96" value="&lt;font style=&quot;font-size: 12px&quot;&gt;&lt;span&gt;DataCategories&lt;/span&gt;?$top=80&amp;amp;$skip=60&lt;/font&gt;" style="text;html=1;strokeColor=none;fillColor=none;align=left;verticalAlign=middle;whiteSpace=wrap;rounded=0;dashed=1;fontSize=12;fontFamily=Courier New;" vertex="1" parent="plRAJhjOQbolsk8mRA2n-1">
          <mxGeometry x="120" y="1240" width="280" height="20" as="geometry" />
        </mxCell>
        <mxCell id="plRAJhjOQbolsk8mRA2n-97" value="GET" style="text;html=1;strokeColor=none;fillColor=none;align=left;verticalAlign=middle;whiteSpace=wrap;rounded=0;dashed=1;fontSize=12;fontFamily=Courier New;" vertex="1" parent="plRAJhjOQbolsk8mRA2n-1">
          <mxGeometry x="80" y="1240" width="40" height="20" as="geometry" />
        </mxCell>
        <mxCell id="plRAJhjOQbolsk8mRA2n-98" value="Count DataCategories, using ODATA standard filter arguments." style="text;html=1;strokeColor=none;fillColor=none;align=left;verticalAlign=middle;whiteSpace=wrap;rounded=0;dashed=1;fontFamily=Helvetica;fontSize=12;" vertex="1" parent="plRAJhjOQbolsk8mRA2n-1">
          <mxGeometry x="360" y="1220" width="320" height="20" as="geometry" />
        </mxCell>
        <mxCell id="plRAJhjOQbolsk8mRA2n-99" value="GET" style="text;html=1;strokeColor=none;fillColor=none;align=left;verticalAlign=middle;whiteSpace=wrap;rounded=0;dashed=1;fontSize=12;fontFamily=Courier New;" vertex="1" parent="plRAJhjOQbolsk8mRA2n-1">
          <mxGeometry x="80" y="1220" width="40" height="20" as="geometry" />
        </mxCell>
        <mxCell id="plRAJhjOQbolsk8mRA2n-100" value="GET" style="text;html=1;strokeColor=none;fillColor=none;align=left;verticalAlign=middle;whiteSpace=wrap;rounded=0;dashed=1;fontSize=12;fontFamily=Courier New;" vertex="1" parent="plRAJhjOQbolsk8mRA2n-1">
          <mxGeometry x="120" y="360" width="40" height="20" as="geometry" />
        </mxCell>
        <mxCell id="plRAJhjOQbolsk8mRA2n-101" value="&lt;font style=&quot;font-size: 12px&quot;&gt;Roles/{guid}/Obligations&lt;/font&gt;" style="text;html=1;strokeColor=none;fillColor=none;align=left;verticalAlign=middle;whiteSpace=wrap;rounded=0;dashed=1;fontSize=12;fontFamily=Courier New;" vertex="1" parent="plRAJhjOQbolsk8mRA2n-1">
          <mxGeometry x="160" y="360" width="240" height="20" as="geometry" />
        </mxCell>
        <mxCell id="plRAJhjOQbolsk8mRA2n-102" value="List Obligations Associated to a specific Role." style="text;html=1;strokeColor=none;fillColor=none;align=left;verticalAlign=middle;whiteSpace=wrap;rounded=0;dashed=1;fontFamily=Helvetica;fontSize=12;" vertex="1" parent="plRAJhjOQbolsk8mRA2n-1">
          <mxGeometry x="400" y="360" width="320" height="20" as="geometry" />
        </mxCell>
        <mxCell id="plRAJhjOQbolsk8mRA2n-103" value="GET" style="text;html=1;strokeColor=none;fillColor=none;align=left;verticalAlign=middle;whiteSpace=wrap;rounded=0;dashed=1;fontSize=12;fontFamily=Courier New;" vertex="1" parent="plRAJhjOQbolsk8mRA2n-1">
          <mxGeometry x="80" y="980" width="40" height="20" as="geometry" />
        </mxCell>
        <mxCell id="plRAJhjOQbolsk8mRA2n-104" value="&lt;font style=&quot;font-size: 12px&quot;&gt;Roles/{guid}/Permissions&lt;/font&gt;" style="text;html=1;strokeColor=none;fillColor=none;align=left;verticalAlign=middle;whiteSpace=wrap;rounded=0;dashed=1;fontSize=12;fontFamily=Courier New;" vertex="1" parent="plRAJhjOQbolsk8mRA2n-1">
          <mxGeometry x="120" y="980" width="240" height="20" as="geometry" />
        </mxCell>
        <mxCell id="plRAJhjOQbolsk8mRA2n-105" value="List Permissions Associated to a specific Role." style="text;html=1;strokeColor=none;fillColor=none;align=left;verticalAlign=middle;whiteSpace=wrap;rounded=0;dashed=1;fontFamily=Helvetica;fontSize=12;" vertex="1" parent="plRAJhjOQbolsk8mRA2n-1">
          <mxGeometry x="360" y="980" width="320" height="20" as="geometry" />
        </mxCell>
        <mxCell id="plRAJhjOQbolsk8mRA2n-106" value="" style="shape=image;html=1;verticalAlign=top;verticalLabelPosition=bottom;labelBackgroundColor=#ffffff;imageAspect=0;aspect=fixed;image=https://cdn1.iconfinder.com/data/icons/hawcons/32/699065-icon-74-document-search-128.png;dashed=1;strokeColor=#666666;fillColor=none;fontFamily=Helvetica;fontSize=11;align=left;" vertex="1" parent="plRAJhjOQbolsk8mRA2n-1">
          <mxGeometry x="330" y="980" width="20" height="20" as="geometry" />
        </mxCell>
        <mxCell id="plRAJhjOQbolsk8mRA2n-107" value="" style="shape=image;html=1;verticalAlign=top;verticalLabelPosition=bottom;labelBackgroundColor=#ffffff;imageAspect=0;aspect=fixed;image=https://cdn1.iconfinder.com/data/icons/hawcons/32/699065-icon-74-document-search-128.png;dashed=1;strokeColor=#666666;fillColor=none;fontFamily=Helvetica;fontSize=11;align=left;" vertex="1" parent="plRAJhjOQbolsk8mRA2n-1">
          <mxGeometry x="330" y="920" width="20" height="20" as="geometry" />
        </mxCell>
        <mxCell id="plRAJhjOQbolsk8mRA2n-108" value="" style="shape=image;html=1;verticalAlign=top;verticalLabelPosition=bottom;labelBackgroundColor=#ffffff;imageAspect=0;aspect=fixed;image=https://cdn1.iconfinder.com/data/icons/hawcons/32/699065-icon-74-document-search-128.png;dashed=1;strokeColor=#666666;fillColor=none;fontFamily=Helvetica;fontSize=11;align=left;" vertex="1" parent="plRAJhjOQbolsk8mRA2n-1">
          <mxGeometry x="370" y="300" width="20" height="20" as="geometry" />
        </mxCell>
        <mxCell id="plRAJhjOQbolsk8mRA2n-109" value="" style="shape=image;html=1;verticalAlign=top;verticalLabelPosition=bottom;labelBackgroundColor=#ffffff;imageAspect=0;aspect=fixed;image=https://cdn1.iconfinder.com/data/icons/hawcons/32/699065-icon-74-document-search-128.png;dashed=1;strokeColor=#666666;fillColor=none;fontFamily=Helvetica;fontSize=11;align=left;" vertex="1" parent="plRAJhjOQbolsk8mRA2n-1">
          <mxGeometry x="330" y="960" width="20" height="20" as="geometry" />
        </mxCell>
        <mxCell id="plRAJhjOQbolsk8mRA2n-110" value="" style="shape=image;html=1;verticalAlign=top;verticalLabelPosition=bottom;labelBackgroundColor=#ffffff;imageAspect=0;aspect=fixed;image=https://cdn1.iconfinder.com/data/icons/hawcons/32/699065-icon-74-document-search-128.png;dashed=1;strokeColor=#666666;fillColor=none;fontFamily=Helvetica;fontSize=11;align=left;" vertex="1" parent="plRAJhjOQbolsk8mRA2n-1">
          <mxGeometry x="370" y="360" width="20" height="20" as="geometry" />
        </mxCell>
        <mxCell id="plRAJhjOQbolsk8mRA2n-111" value="" style="shape=image;html=1;verticalAlign=top;verticalLabelPosition=bottom;labelBackgroundColor=#ffffff;imageAspect=0;aspect=fixed;image=https://cdn1.iconfinder.com/data/icons/hawcons/32/699065-icon-74-document-search-128.png;dashed=1;strokeColor=#666666;fillColor=none;fontFamily=Helvetica;fontSize=11;align=left;" vertex="1" parent="plRAJhjOQbolsk8mRA2n-1">
          <mxGeometry x="330" y="940" width="20" height="20" as="geometry" />
        </mxCell>
        <mxCell id="plRAJhjOQbolsk8mRA2n-112" value="" style="shape=image;html=1;verticalAlign=top;verticalLabelPosition=bottom;labelBackgroundColor=#ffffff;imageAspect=0;aspect=fixed;image=https://cdn1.iconfinder.com/data/icons/hawcons/32/699065-icon-74-document-search-128.png;dashed=1;strokeColor=#666666;fillColor=none;fontFamily=Helvetica;fontSize=11;align=left;" vertex="1" parent="plRAJhjOQbolsk8mRA2n-1">
          <mxGeometry x="370" y="320" width="20" height="20" as="geometry" />
        </mxCell>
        <mxCell id="plRAJhjOQbolsk8mRA2n-113" value="" style="shape=image;html=1;verticalAlign=top;verticalLabelPosition=bottom;labelBackgroundColor=#ffffff;imageAspect=0;aspect=fixed;image=https://cdn1.iconfinder.com/data/icons/hawcons/32/699065-icon-74-document-search-128.png;dashed=1;strokeColor=#666666;fillColor=none;fontFamily=Helvetica;fontSize=11;align=left;" vertex="1" parent="plRAJhjOQbolsk8mRA2n-1">
          <mxGeometry x="370" y="340" width="20" height="20" as="geometry" />
        </mxCell>
        <mxCell id="plRAJhjOQbolsk8mRA2n-117" value="List Obligations meeting custom search constraints." style="text;html=1;strokeColor=none;fillColor=none;align=left;verticalAlign=middle;whiteSpace=wrap;rounded=0;dashed=1;fontFamily=Helvetica;fontSize=12;" vertex="1" parent="plRAJhjOQbolsk8mRA2n-1">
          <mxGeometry x="400" y="380" width="320" height="20" as="geometry" />
        </mxCell>
        <mxCell id="plRAJhjOQbolsk8mRA2n-118" value="Obligations$search=xyz" style="text;html=1;strokeColor=none;fillColor=none;align=left;verticalAlign=middle;whiteSpace=wrap;rounded=0;dashed=1;fontSize=12;fontFamily=Courier New;" vertex="1" parent="plRAJhjOQbolsk8mRA2n-1">
          <mxGeometry x="160" y="380" width="200" height="20" as="geometry" />
        </mxCell>
        <mxCell id="plRAJhjOQbolsk8mRA2n-119" value="GET" style="text;html=1;strokeColor=none;fillColor=none;align=left;verticalAlign=middle;whiteSpace=wrap;rounded=0;dashed=1;fontSize=12;fontFamily=Courier New;" vertex="1" parent="plRAJhjOQbolsk8mRA2n-1">
          <mxGeometry x="120" y="380" width="40" height="20" as="geometry" />
        </mxCell>
        <mxCell id="plRAJhjOQbolsk8mRA2n-120" value="" style="shape=image;html=1;verticalAlign=top;verticalLabelPosition=bottom;labelBackgroundColor=#ffffff;imageAspect=0;aspect=fixed;image=https://cdn1.iconfinder.com/data/icons/hawcons/32/699065-icon-74-document-search-128.png;dashed=1;strokeColor=#666666;fillColor=none;fontFamily=Helvetica;fontSize=11;align=left;" vertex="1" parent="plRAJhjOQbolsk8mRA2n-1">
          <mxGeometry x="370" y="380" width="20" height="20" as="geometry" />
        </mxCell>
        <mxCell id="plRAJhjOQbolsk8mRA2n-121" value="List Permissions meeting custom search constraints." style="text;html=1;strokeColor=none;fillColor=none;align=left;verticalAlign=middle;whiteSpace=wrap;rounded=0;dashed=1;fontFamily=Helvetica;fontSize=12;" vertex="1" parent="plRAJhjOQbolsk8mRA2n-1">
          <mxGeometry x="360" y="1000" width="320" height="20" as="geometry" />
        </mxCell>
        <mxCell id="plRAJhjOQbolsk8mRA2n-122" value="Permissions$search=xyz" style="text;html=1;strokeColor=none;fillColor=none;align=left;verticalAlign=middle;whiteSpace=wrap;rounded=0;dashed=1;fontSize=12;fontFamily=Courier New;" vertex="1" parent="plRAJhjOQbolsk8mRA2n-1">
          <mxGeometry x="120" y="1000" width="200" height="20" as="geometry" />
        </mxCell>
        <mxCell id="plRAJhjOQbolsk8mRA2n-123" value="GET" style="text;html=1;strokeColor=none;fillColor=none;align=left;verticalAlign=middle;whiteSpace=wrap;rounded=0;dashed=1;fontSize=12;fontFamily=Courier New;" vertex="1" parent="plRAJhjOQbolsk8mRA2n-1">
          <mxGeometry x="80" y="1000" width="40" height="20" as="geometry" />
        </mxCell>
        <mxCell id="plRAJhjOQbolsk8mRA2n-124" value="" style="shape=image;html=1;verticalAlign=top;verticalLabelPosition=bottom;labelBackgroundColor=#ffffff;imageAspect=0;aspect=fixed;image=https://cdn1.iconfinder.com/data/icons/hawcons/32/699065-icon-74-document-search-128.png;dashed=1;strokeColor=#666666;fillColor=none;fontFamily=Helvetica;fontSize=11;align=left;" vertex="1" parent="plRAJhjOQbolsk8mRA2n-1">
          <mxGeometry x="330" y="1000" width="20" height="20" as="geometry" />
        </mxCell>
        <mxCell id="plRAJhjOQbolsk8mRA2n-125" value="List DataCategories meeting custom search constraints." style="text;html=1;strokeColor=none;fillColor=none;align=left;verticalAlign=middle;whiteSpace=wrap;rounded=0;dashed=1;fontFamily=Helvetica;fontSize=12;" vertex="1" parent="plRAJhjOQbolsk8mRA2n-1">
          <mxGeometry x="360" y="1260" width="320" height="20" as="geometry" />
        </mxCell>
        <mxCell id="plRAJhjOQbolsk8mRA2n-126" value="DataCategories$search=xyz" style="text;html=1;strokeColor=none;fillColor=none;align=left;verticalAlign=middle;whiteSpace=wrap;rounded=0;dashed=1;fontSize=12;fontFamily=Courier New;" vertex="1" parent="plRAJhjOQbolsk8mRA2n-1">
          <mxGeometry x="120" y="1260" width="240" height="20" as="geometry" />
        </mxCell>
        <mxCell id="plRAJhjOQbolsk8mRA2n-127" value="GET" style="text;html=1;strokeColor=none;fillColor=none;align=left;verticalAlign=middle;whiteSpace=wrap;rounded=0;dashed=1;fontSize=12;fontFamily=Courier New;" vertex="1" parent="plRAJhjOQbolsk8mRA2n-1">
          <mxGeometry x="80" y="1260" width="40" height="20" as="geometry" />
        </mxCell>
        <mxCell id="plRAJhjOQbolsk8mRA2n-128" value="DataCategories?$count=true" style="text;html=1;strokeColor=none;fillColor=none;align=left;verticalAlign=middle;whiteSpace=wrap;rounded=0;dashed=1;fontSize=12;fontFamily=Courier New;" vertex="1" parent="plRAJhjOQbolsk8mRA2n-1">
          <mxGeometry x="120" y="1220" width="240" height="20" as="geometry" />
        </mxCell>
        <mxCell id="plRAJhjOQbolsk8mRA2n-129" value="Description" style="text;html=1;strokeColor=none;fillColor=#f5f5f5;align=left;verticalAlign=middle;whiteSpace=wrap;rounded=0;fontSize=12;fontFamily=Helvetica;fontColor=#333333;fontStyle=0" vertex="1" parent="plRAJhjOQbolsk8mRA2n-1">
          <mxGeometry x="357" y="1140" width="320" height="20" as="geometry" />
        </mxCell>
        <mxCell id="plRAJhjOQbolsk8mRA2n-130" value="URL" style="text;html=1;strokeColor=none;fillColor=#f5f5f5;align=left;verticalAlign=middle;whiteSpace=wrap;rounded=0;fontSize=12;fontFamily=Helvetica;fontColor=#333333;fontStyle=0" vertex="1" parent="plRAJhjOQbolsk8mRA2n-1">
          <mxGeometry x="117" y="1140" width="230" height="20" as="geometry" />
        </mxCell>
        <mxCell id="plRAJhjOQbolsk8mRA2n-131" value="&lt;font style=&quot;font-size: 10px;&quot;&gt;VERB&lt;/font&gt;" style="text;html=1;strokeColor=none;fillColor=#f5f5f5;align=left;verticalAlign=middle;whiteSpace=wrap;rounded=0;fontSize=10;fontFamily=Helvetica;fontColor=#333333;fontStyle=0" vertex="1" parent="plRAJhjOQbolsk8mRA2n-1">
          <mxGeometry x="77" y="1140" width="30" height="20" as="geometry" />
        </mxCell>
        <mxCell id="plRAJhjOQbolsk8mRA2n-132" value="List DataCategories (within current Tenancy)" style="text;html=1;strokeColor=none;fillColor=none;align=left;verticalAlign=middle;whiteSpace=wrap;rounded=0;dashed=1;fontFamily=Helvetica;fontSize=12;" vertex="1" parent="plRAJhjOQbolsk8mRA2n-1">
          <mxGeometry x="360" y="1200" width="320" height="20" as="geometry" />
        </mxCell>
        <mxCell id="plRAJhjOQbolsk8mRA2n-133" value="&lt;font style=&quot;font-size: 9px;&quot;&gt;SearchItems?$search=DataCategory,abc:xyz&lt;/font&gt;" style="text;html=1;strokeColor=none;fillColor=none;align=left;verticalAlign=middle;whiteSpace=wrap;rounded=0;dashed=1;fontSize=9;fontFamily=Courier New;" vertex="1" parent="plRAJhjOQbolsk8mRA2n-1">
          <mxGeometry x="120" y="1180" width="250" height="20" as="geometry" />
        </mxCell>
        <mxCell id="plRAJhjOQbolsk8mRA2n-134" value="GET" style="text;html=1;strokeColor=none;fillColor=none;align=left;verticalAlign=middle;whiteSpace=wrap;rounded=0;dashed=1;fontSize=12;fontFamily=Courier New;" vertex="1" parent="plRAJhjOQbolsk8mRA2n-1">
          <mxGeometry x="80" y="1180" width="40" height="20" as="geometry" />
        </mxCell>
        <mxCell id="plRAJhjOQbolsk8mRA2n-135" value="&lt;font style=&quot;font-size: 10px;&quot;&gt;SearchItems?$search=DataCategory:xyz&lt;/font&gt;" style="text;html=1;strokeColor=none;fillColor=none;align=left;verticalAlign=middle;whiteSpace=wrap;rounded=0;dashed=1;fontSize=10;fontFamily=Courier New;" vertex="1" parent="plRAJhjOQbolsk8mRA2n-1">
          <mxGeometry x="120" y="1160" width="240" height="20" as="geometry" />
        </mxCell>
        <mxCell id="plRAJhjOQbolsk8mRA2n-136" value="GET" style="text;html=1;strokeColor=none;fillColor=none;align=left;verticalAlign=middle;whiteSpace=wrap;rounded=0;dashed=1;fontSize=12;fontFamily=Courier New;" vertex="1" parent="plRAJhjOQbolsk8mRA2n-1">
          <mxGeometry x="80" y="1160" width="40" height="20" as="geometry" />
        </mxCell>
        <mxCell id="plRAJhjOQbolsk8mRA2n-137" value="List SearchItems of type DataCategory custom matching xyz" style="text;html=1;strokeColor=none;fillColor=none;align=left;verticalAlign=middle;whiteSpace=wrap;rounded=0;dashed=1;fontFamily=Helvetica;fontSize=12;" vertex="1" parent="plRAJhjOQbolsk8mRA2n-1">
          <mxGeometry x="360" y="1160" width="320" height="20" as="geometry" />
        </mxCell>
        <mxCell id="plRAJhjOQbolsk8mRA2n-138" value="List SearchItems of type DataCategory &amp;amp; abc custom matching xyz" style="text;html=1;strokeColor=none;fillColor=none;align=left;verticalAlign=middle;whiteSpace=wrap;rounded=0;dashed=1;fontFamily=Helvetica;fontSize=12;" vertex="1" parent="plRAJhjOQbolsk8mRA2n-1">
          <mxGeometry x="360" y="1180" width="320" height="20" as="geometry" />
        </mxCell>
        <mxCell id="plRAJhjOQbolsk8mRA2n-139" value="&lt;font style=&quot;font-size: 9px&quot;&gt;SearchItems?$search=Permission,abc:xyz&lt;/font&gt;" style="text;html=1;strokeColor=none;fillColor=none;align=left;verticalAlign=middle;whiteSpace=wrap;rounded=0;dashed=1;fontSize=9;fontFamily=Courier New;" vertex="1" parent="plRAJhjOQbolsk8mRA2n-1">
          <mxGeometry x="120" y="900" width="250" height="20" as="geometry" />
        </mxCell>
        <mxCell id="plRAJhjOQbolsk8mRA2n-140" value="GET" style="text;html=1;strokeColor=none;fillColor=none;align=left;verticalAlign=middle;whiteSpace=wrap;rounded=0;dashed=1;fontSize=12;fontFamily=Courier New;" vertex="1" parent="plRAJhjOQbolsk8mRA2n-1">
          <mxGeometry x="80" y="900" width="40" height="20" as="geometry" />
        </mxCell>
        <mxCell id="plRAJhjOQbolsk8mRA2n-141" value="&lt;font style=&quot;font-size: 10px&quot;&gt;SearchItems?$search=Permission:xyz&lt;/font&gt;" style="text;html=1;strokeColor=none;fillColor=none;align=left;verticalAlign=middle;whiteSpace=wrap;rounded=0;dashed=1;fontSize=10;fontFamily=Courier New;" vertex="1" parent="plRAJhjOQbolsk8mRA2n-1">
          <mxGeometry x="120" y="880" width="240" height="20" as="geometry" />
        </mxCell>
        <mxCell id="plRAJhjOQbolsk8mRA2n-142" value="GET" style="text;html=1;strokeColor=none;fillColor=none;align=left;verticalAlign=middle;whiteSpace=wrap;rounded=0;dashed=1;fontSize=12;fontFamily=Courier New;" vertex="1" parent="plRAJhjOQbolsk8mRA2n-1">
          <mxGeometry x="80" y="880" width="40" height="20" as="geometry" />
        </mxCell>
        <mxCell id="plRAJhjOQbolsk8mRA2n-143" value="List SearchItems of type Permission custom matching xyz" style="text;html=1;strokeColor=none;fillColor=none;align=left;verticalAlign=middle;whiteSpace=wrap;rounded=0;dashed=1;fontFamily=Helvetica;fontSize=12;" vertex="1" parent="plRAJhjOQbolsk8mRA2n-1">
          <mxGeometry x="360" y="880" width="320" height="20" as="geometry" />
        </mxCell>
        <mxCell id="plRAJhjOQbolsk8mRA2n-144" value="List SearchItems of type Permission &amp;amp; abc custom matching xyz" style="text;html=1;strokeColor=none;fillColor=none;align=left;verticalAlign=middle;whiteSpace=wrap;rounded=0;dashed=1;fontFamily=Helvetica;fontSize=12;" vertex="1" parent="plRAJhjOQbolsk8mRA2n-1">
          <mxGeometry x="360" y="900" width="320" height="20" as="geometry" />
        </mxCell>
        <mxCell id="plRAJhjOQbolsk8mRA2n-145" value="Description" style="text;html=1;strokeColor=none;fillColor=#f5f5f5;align=left;verticalAlign=middle;whiteSpace=wrap;rounded=0;fontSize=12;fontFamily=Helvetica;fontColor=#333333;fontStyle=0" vertex="1" parent="plRAJhjOQbolsk8mRA2n-1">
          <mxGeometry x="360" y="860" width="320" height="20" as="geometry" />
        </mxCell>
        <mxCell id="plRAJhjOQbolsk8mRA2n-146" value="URL" style="text;html=1;strokeColor=none;fillColor=#f5f5f5;align=left;verticalAlign=middle;whiteSpace=wrap;rounded=0;fontSize=12;fontFamily=Helvetica;fontColor=#333333;fontStyle=0" vertex="1" parent="plRAJhjOQbolsk8mRA2n-1">
          <mxGeometry x="120" y="860" width="230" height="20" as="geometry" />
        </mxCell>
        <mxCell id="plRAJhjOQbolsk8mRA2n-147" value="&lt;font style=&quot;font-size: 10px;&quot;&gt;VERB&lt;/font&gt;" style="text;html=1;strokeColor=none;fillColor=#f5f5f5;align=left;verticalAlign=middle;whiteSpace=wrap;rounded=0;fontSize=10;fontFamily=Helvetica;fontColor=#333333;fontStyle=0" vertex="1" parent="plRAJhjOQbolsk8mRA2n-1">
          <mxGeometry x="80" y="860" width="30" height="20" as="geometry" />
        </mxCell>
        <mxCell id="plRAJhjOQbolsk8mRA2n-148" value="Description" style="text;html=1;strokeColor=none;fillColor=#f5f5f5;align=left;verticalAlign=middle;whiteSpace=wrap;rounded=0;fontSize=12;fontFamily=Helvetica;fontColor=#333333;fontStyle=0" vertex="1" parent="plRAJhjOQbolsk8mRA2n-1">
          <mxGeometry x="400" y="200" width="320" height="20" as="geometry" />
        </mxCell>
        <mxCell id="plRAJhjOQbolsk8mRA2n-149" value="URL" style="text;html=1;strokeColor=none;fillColor=#f5f5f5;align=left;verticalAlign=middle;whiteSpace=wrap;rounded=0;fontSize=12;fontFamily=Helvetica;fontColor=#333333;fontStyle=0" vertex="1" parent="plRAJhjOQbolsk8mRA2n-1">
          <mxGeometry x="160" y="200" width="230" height="20" as="geometry" />
        </mxCell>
        <mxCell id="plRAJhjOQbolsk8mRA2n-150" value="&lt;font style=&quot;font-size: 10px;&quot;&gt;VERB&lt;/font&gt;" style="text;html=1;strokeColor=none;fillColor=#f5f5f5;align=left;verticalAlign=middle;whiteSpace=wrap;rounded=0;fontSize=10;fontFamily=Helvetica;fontColor=#333333;fontStyle=0" vertex="1" parent="plRAJhjOQbolsk8mRA2n-1">
          <mxGeometry x="120" y="200" width="30" height="20" as="geometry" />
        </mxCell>
        <mxCell id="plRAJhjOQbolsk8mRA2n-151" value="Text" style="text;html=1;align=center;verticalAlign=middle;resizable=0;points=[];autosize=1;fontSize=10;fontFamily=Helvetica;" vertex="1" parent="plRAJhjOQbolsk8mRA2n-1">
          <mxGeometry x="382" y="872" width="30" height="20" as="geometry" />
        </mxCell>
        <mxCell id="plRAJhjOQbolsk8mRA2n-152" value="&lt;font style=&quot;font-size: 9px&quot;&gt;&lt;span style=&quot;font-size: 10px&quot;&gt;SummaryItems&lt;/span&gt;?$search=Obligation,abc:xyz&lt;/font&gt;" style="text;html=1;strokeColor=none;fillColor=none;align=left;verticalAlign=middle;whiteSpace=wrap;rounded=0;dashed=1;fontSize=9;fontFamily=Courier New;" vertex="1" parent="plRAJhjOQbolsk8mRA2n-1">
          <mxGeometry x="160" y="260" width="250" height="20" as="geometry" />
        </mxCell>
        <mxCell id="plRAJhjOQbolsk8mRA2n-153" value="GET" style="text;html=1;strokeColor=none;fillColor=none;align=left;verticalAlign=middle;whiteSpace=wrap;rounded=0;dashed=1;fontSize=12;fontFamily=Courier New;" vertex="1" parent="plRAJhjOQbolsk8mRA2n-1">
          <mxGeometry x="120" y="260" width="40" height="20" as="geometry" />
        </mxCell>
        <mxCell id="plRAJhjOQbolsk8mRA2n-154" value="&lt;font style=&quot;font-size: 10px&quot;&gt;SummaryItems?$search=Obligation:xyz&lt;/font&gt;" style="text;html=1;strokeColor=none;fillColor=none;align=left;verticalAlign=middle;whiteSpace=wrap;rounded=0;dashed=1;fontSize=10;fontFamily=Courier New;" vertex="1" parent="plRAJhjOQbolsk8mRA2n-1">
          <mxGeometry x="160" y="240" width="240" height="20" as="geometry" />
        </mxCell>
        <mxCell id="plRAJhjOQbolsk8mRA2n-155" value="GET" style="text;html=1;strokeColor=none;fillColor=none;align=left;verticalAlign=middle;whiteSpace=wrap;rounded=0;dashed=1;fontSize=12;fontFamily=Courier New;" vertex="1" parent="plRAJhjOQbolsk8mRA2n-1">
          <mxGeometry x="120" y="240" width="40" height="20" as="geometry" />
        </mxCell>
        <mxCell id="plRAJhjOQbolsk8mRA2n-156" value="List SummaryItems of type Obligation custom matching xyz" style="text;html=1;strokeColor=none;fillColor=none;align=left;verticalAlign=middle;whiteSpace=wrap;rounded=0;dashed=1;fontFamily=Helvetica;fontSize=12;" vertex="1" parent="plRAJhjOQbolsk8mRA2n-1">
          <mxGeometry x="400" y="240" width="320" height="20" as="geometry" />
        </mxCell>
        <mxCell id="plRAJhjOQbolsk8mRA2n-157" value="&lt;font style=&quot;font-size: 10px&quot;&gt;List SummaryItems of type Obligation&amp;nbsp;&amp;amp; abc custom matching xyz&lt;/font&gt;" style="text;html=1;strokeColor=none;fillColor=none;align=left;verticalAlign=middle;whiteSpace=wrap;rounded=0;dashed=1;fontFamily=Helvetica;fontSize=11;" vertex="1" parent="plRAJhjOQbolsk8mRA2n-1">
          <mxGeometry x="400" y="260" width="320" height="20" as="geometry" />
        </mxCell>
        <mxCell id="plRAJhjOQbolsk8mRA2n-167" value="Diagram" parent="plRAJhjOQbolsk8mRA2n-0" />
        <mxCell id="plRAJhjOQbolsk8mRA2n-168" value="Context/Legend" parent="plRAJhjOQbolsk8mRA2n-0" />
        <mxCell id="plRAJhjOQbolsk8mRA2n-169" value="Title/Diagram" parent="plRAJhjOQbolsk8mRA2n-0" />
        <mxCell id="plRAJhjOQbolsk8mRA2n-170" value="&lt;font style=&quot;font-size: 12px ; font-weight: normal&quot;&gt;&lt;i&gt;Diagram: Base System Logical Module -&amp;nbsp;&lt;/i&gt;&lt;i&gt;Interoperability&amp;nbsp;&lt;/i&gt;&lt;i&gt;- APIs - Obligations&lt;/i&gt;&lt;/font&gt;" style="text;strokeColor=none;fillColor=none;html=1;fontSize=12;fontStyle=1;verticalAlign=middle;align=left;shadow=0;glass=0;comic=0;opacity=30;fontColor=#808080;" vertex="1" parent="plRAJhjOQbolsk8mRA2n-169">
          <mxGeometry x="120" y="540" width="560" height="20" as="geometry" />
        </mxCell>
        <mxCell id="plRAJhjOQbolsk8mRA2n-171" value="Title/Page" visible="0" parent="plRAJhjOQbolsk8mRA2n-0" />
        <mxCell id="plRAJhjOQbolsk8mRA2n-172" value="" style="group;fontSize=12;" vertex="1" connectable="0" parent="plRAJhjOQbolsk8mRA2n-171">
          <mxGeometry x="120" y="120" width="600" height="45" as="geometry" />
        </mxCell>
        <mxCell id="plRAJhjOQbolsk8mRA2n-173" value="&lt;font style=&quot;font-size: 12px&quot;&gt;Base Logical Module - Interoperability&amp;nbsp;- APIs - Obligations&lt;/font&gt;" style="text;strokeColor=none;fillColor=none;html=1;fontSize=12;fontStyle=1;verticalAlign=middle;align=left;shadow=0;glass=0;comic=0;opacity=30;fontColor=#808080;" vertex="1" parent="plRAJhjOQbolsk8mRA2n-172">
          <mxGeometry y="20" width="600" height="20" as="geometry" />
        </mxCell>
        <mxCell id="plRAJhjOQbolsk8mRA2n-174" value="" style="line;strokeWidth=2;html=1;shadow=0;glass=0;comic=0;fillColor=none;fontSize=10;fontColor=#CCCCCC;labelBackgroundColor=none;strokeColor=#CCCCCC;" vertex="1" parent="plRAJhjOQbolsk8mRA2n-172">
          <mxGeometry y="35" width="600" height="10" as="geometry" />
        </mxCell>
        <mxCell id="plRAJhjOQbolsk8mRA2n-175" value="About" parent="plRAJhjOQbolsk8mRA2n-0" />
      </root>
    </mxGraphModel>
  </diagram>
</mxfile>
